<?xml version="1.0" encoding="UTF-8" standalone="no"?>
<!-- Created with Inkscape (http://www.inkscape.org/) -->

<svg
   xmlns:dc="http://purl.org/dc/elements/1.1/"
   xmlns:cc="http://creativecommons.org/ns#"
   xmlns:rdf="http://www.w3.org/1999/02/22-rdf-syntax-ns#"
   xmlns:svg="http://www.w3.org/2000/svg"
   xmlns="http://www.w3.org/2000/svg"
   xmlns:sodipodi="http://sodipodi.sourceforge.net/DTD/sodipodi-0.dtd"
   xmlns:inkscape="http://www.inkscape.org/namespaces/inkscape"
   width="210mm"
   height="297mm"
   viewBox="0 0 210 297"
   version="1.1"
   id="svg8"
   inkscape:version="0.92.5 (2060ec1f9f, 2020-04-08)"
   sodipodi:docname="esquema_ppal.svg"
   inkscape:export-filename="/home/leila/Desktop/PhD-ICFO/project/esquemas_inkscape/esquema_ppal.png"
   inkscape:export-xdpi="96"
   inkscape:export-ydpi="96">
  <defs
     id="defs2" />
  <sodipodi:namedview
     id="base"
     pagecolor="#ffffff"
     bordercolor="#666666"
     borderopacity="1.0"
     inkscape:pageopacity="0.0"
     inkscape:pageshadow="2"
     inkscape:zoom="1.979899"
     inkscape:cx="240.46416"
     inkscape:cy="962.71849"
     inkscape:document-units="mm"
     inkscape:current-layer="layer1"
     showgrid="false"
     showguides="false"
     inkscape:window-width="1848"
     inkscape:window-height="1016"
     inkscape:window-x="72"
     inkscape:window-y="27"
     inkscape:window-maximized="1" />
  <metadata
     id="metadata5">
    <rdf:RDF>
      <cc:Work
         rdf:about="">
        <dc:format>image/svg+xml</dc:format>
        <dc:type
           rdf:resource="http://purl.org/dc/dcmitype/StillImage" />
        <dc:title />
      </cc:Work>
    </rdf:RDF>
  </metadata>
  <g
     inkscape:label="Layer 1"
     inkscape:groupmode="layer"
     id="layer1">
    <path
       style="opacity:1;fill:#00ff00;fill-opacity:1;stroke:none;stroke-width:1.5;stroke-linecap:round;stroke-linejoin:round;stroke-miterlimit:4;stroke-dasharray:none;stroke-opacity:1;paint-order:markers fill stroke"
       id="path883-5"
       sodipodi:type="arc"
       sodipodi:cx="48.34972"
       sodipodi:cy="10.597559"
       sodipodi:rx="5.0426617"
       sodipodi:ry="4.8442602"
       sodipodi:start="0"
       sodipodi:end="3.0578692"
       sodipodi:open="true"
       d="m 53.392382,10.597559 a 5.0426617,4.8442602 0 0 1 -4.831629,4.840016 5.0426617,4.8442602 0 0 1 -5.236031,-4.434911"
       inkscape:export-xdpi="96"
       inkscape:export-ydpi="96" />
    <path
       style="opacity:1;fill:#00ff00;fill-opacity:1;stroke:none;stroke-width:1.5;stroke-linecap:round;stroke-linejoin:round;stroke-miterlimit:4;stroke-dasharray:none;stroke-opacity:1;paint-order:markers fill stroke"
       id="path883-3-3"
       sodipodi:type="arc"
       sodipodi:cx="-48.353481"
       sodipodi:cy="-11.075385"
       sodipodi:rx="5.0426445"
       sodipodi:ry="4.8442602"
       sodipodi:start="0"
       sodipodi:end="3.0578692"
       sodipodi:open="true"
       d="m -43.310837,-11.075385 a 5.0426445,4.8442602 0 0 1 -4.831612,4.8400162 5.0426445,4.8442602 0 0 1 -5.236014,-4.4349122"
       transform="matrix(-0.99999985,5.5424916e-4,-3.6498742e-4,-0.99999993,0,0)"
       inkscape:export-xdpi="96"
       inkscape:export-ydpi="96" />
    <path
       style="fill:none;stroke:#000000;stroke-width:0.26458332px;stroke-linecap:butt;stroke-linejoin:miter;stroke-opacity:1"
       d="m 41.866982,3.8740566 h 13.22984 -0.0668"
       id="path952"
       inkscape:connector-curvature="0"
       sodipodi:nodetypes="ccc"
       inkscape:export-xdpi="96"
       inkscape:export-ydpi="96" />
    <text
       xml:space="preserve"
       style="font-style:normal;font-weight:normal;font-size:3.52777767px;line-height:1.25;font-family:sans-serif;letter-spacing:0px;word-spacing:0px;fill:#000000;fill-opacity:1;stroke:none;stroke-width:0.26458332"
       x="57.034531"
       y="4.3978581"
       id="text956"
       inkscape:export-xdpi="96"
       inkscape:export-ydpi="96"><tspan
         sodipodi:role="line"
         id="tspan954"
         x="57.034531"
         y="4.3978581"
         style="font-size:3.52777767px;stroke-width:0.26458332">v<tspan
   style="font-size:2.11666656px"
   id="tspan432">x</tspan></tspan></text>
    <path
       style="fill:none;stroke:#000000;stroke-width:0.26458332px;stroke-linecap:butt;stroke-linejoin:miter;stroke-opacity:1"
       d="m 53.241812,2.8550032 1.86401,1.0240534 -0.009,-0.005"
       id="path952-5"
       inkscape:connector-curvature="0"
       sodipodi:nodetypes="ccc"
       inkscape:export-xdpi="96"
       inkscape:export-ydpi="96" />
    <path
       style="fill:none;stroke:#000000;stroke-width:0.26458332px;stroke-linecap:butt;stroke-linejoin:miter;stroke-opacity:1"
       d="m 53.272482,5.05335 1.76654,-1.1842934 -0.009,0.005"
       id="path952-5-2"
       inkscape:connector-curvature="0"
       sodipodi:nodetypes="ccc"
       inkscape:transform-center-y="0.35491639"
       inkscape:transform-center-x="0.17923256"
       inkscape:export-xdpi="96"
       inkscape:export-ydpi="96" />
    <text
       xml:space="preserve"
       style="font-style:normal;font-weight:normal;font-size:1.76388896px;line-height:1.25;font-family:sans-serif;text-align:center;letter-spacing:0px;word-spacing:0px;text-anchor:middle;fill:#00ff00;fill-opacity:1;stroke:none;stroke-width:0.26458332"
       x="35.486897"
       y="12.144035"
       id="text1000"
       inkscape:export-xdpi="96"
       inkscape:export-ydpi="96"><tspan
         sodipodi:role="line"
         id="tspan998"
         x="35.486897"
         y="12.144035"
         style="font-size:3.52777767px;text-align:center;text-anchor:middle;fill:#00ff00;fill-opacity:1;stroke-width:0.26458332">electron</tspan><tspan
         sodipodi:role="line"
         x="35.486897"
         y="14.99313"
         style="font-size:3.52777767px;text-align:center;text-anchor:middle;fill:#00ff00;fill-opacity:1;stroke-width:0.26458332"
         id="tspan1002" /></text>
    <path
       style="fill:none;stroke:#000000;stroke-width:0.26458332px;stroke-linecap:butt;stroke-linejoin:miter;stroke-opacity:1"
       d="m 75.637275,236.46345 v 0 0 0 0"
       id="path1030"
       inkscape:connector-curvature="0" />
    <text
       xml:space="preserve"
       style="font-style:normal;font-weight:normal;font-size:8.46666622px;line-height:1.25;font-family:sans-serif;letter-spacing:0px;word-spacing:0px;fill:#000000;fill-opacity:1;stroke:none;stroke-width:0.26458332"
       x="140.13467"
       y="215.65955"
       id="text1104"><tspan
         sodipodi:role="line"
         id="tspan1102"
         x="140.13467"
         y="223.15056"
         style="stroke-width:0.26458332" /></text>
    <text
       xml:space="preserve"
       style="font-style:normal;font-weight:normal;font-size:8.46666622px;line-height:1.25;font-family:sans-serif;letter-spacing:0px;word-spacing:0px;fill:#000000;fill-opacity:1;stroke:none;stroke-width:0.26458332"
       x="176.79878"
       y="63.940968"
       id="text1463"><tspan
         sodipodi:role="line"
         id="tspan1461"
         x="176.79878"
         y="71.431984"
         style="stroke-width:0.26458332" /></text>
    <path
       style="fill:none;stroke:#000000;stroke-width:0.26458332px;stroke-linecap:butt;stroke-linejoin:miter;stroke-opacity:1"
       d="m 7.4364215,48.323071 -0.5412987,0.19248 63.6129992,0.15752"
       id="path815-7-3-6-5"
       inkscape:connector-curvature="0"
       inkscape:export-xdpi="96"
       inkscape:export-ydpi="96" />
    <path
       style="fill:none;stroke:#000000;stroke-width:0.26458332px;stroke-linecap:butt;stroke-linejoin:miter;stroke-opacity:1"
       d="m 9.8260593,49.862591 c -0.6140697,0.61407 -0.0878,0.0314 -0.33409,0.40091 -0.1643897,0.24658 0.0308,-0.11295 -0.1336297,0.13363 -0.0276,0.0414 -0.0369,0.0938 -0.0668,0.13364 -0.0378,0.0504 -0.0958,0.0832 -0.13364,0.13363 -0.0299,0.0398 -0.0316,0.0984 -0.0668,0.13364 -0.0352,0.0352 -0.0984,0.0316 -0.13364,0.0668 -0.0352,0.0352 -0.0369,0.0938 -0.0668,0.13364 -0.409159,0.40916 0.0845,-0.11269 -0.20045,0.26727 -0.0378,0.0504 -0.0891,0.0891 -0.13364,0.13363 -0.0891,0.0891 -0.1781787,0.17818 -0.2672687,0.26727 -0.11136,0.11137 -0.22273,0.22273 -0.33409,0.33409 -0.0223,0.0223 -0.0406,0.0493 -0.0668,0.0668 -0.0414,0.0276 -0.0984,0.0316 -0.1336297,0.0668 -0.0352,0.0352 -0.0316,0.0984 -0.0668,0.13364 -0.0352,0.0352 -0.0922,0.0392 -0.13364,0.0668 -0.0262,0.0175 -0.0445,0.0445 -0.0668,0.0668 -0.0223,0.0223 -0.0493,0.0406 -0.0668,0.0668 -0.0276,0.0414 -0.0316,0.0984 -0.0668,0.13363 -0.0352,0.0352 -0.0922,0.0392 -0.13363,0.0668 -0.0524,0.035 -0.0891,0.0891 -0.13364,0.13364 -0.0223,0.0223 -0.0445,0.0445 -0.0668,0.0668 -0.0223,0.0223 -0.0527,0.0386 -0.0668,0.0668 -0.01,0.0199 0.01,0.0469 0,0.0668 -0.0141,0.0282 -0.0445,0.0445 -0.0668,0.0668 -0.0223,0.0223 -0.0386,0.0527 -0.0668,0.0668 -0.0199,0.01 -0.0511,-0.0158 -0.0668,0 -0.0157,0.0157 0.01,0.0469 0,0.0668 -0.13904,0.27808 0.005,-0.0714 -0.13364,0.0668 -0.0157,0.0157 0.0157,0.0511 0,0.0668 -0.0157,0.0157 -0.0511,-0.0157 -0.0668,0 -0.0157,0.0157 0.0157,0.0511 0,0.0668 -0.0157,0.0157 -0.0511,-0.0157 -0.0668,0 -0.0157,0.0157 0.0157,0.0511 0,0.0668 -0.0157,0.0157 -0.0511,-0.0157 -0.0668,0 -0.0157,0.0157 -0.0157,0.0511 0,0.0668 0.0157,0.0157 0.0446,0 0.0668,0"
       id="path855-5-6-2-5"
       inkscape:connector-curvature="0"
       inkscape:export-xdpi="96"
       inkscape:export-ydpi="96" />
    <path
       style="fill:none;stroke:#000000;stroke-width:0.26458332px;stroke-linecap:butt;stroke-linejoin:miter;stroke-opacity:1"
       d="m 14.658432,49.996231 c 0.0698,0.22881 -0.2035,0.20653 -0.26728,0.33409 -0.01,0.0199 0.01,0.0469 0,0.0668 -0.0141,0.0282 -0.0527,0.0387 -0.0668,0.0668 -0.01,0.0199 0.01,0.0469 0,0.0668 -0.0141,0.0282 -0.0527,0.0386 -0.0668,0.0668 -0.01,0.0199 0,0.0445 0,0.0668 -0.0223,0.0445 -0.0392,0.0922 -0.0668,0.13363 -0.0175,0.0262 -0.0527,0.0386 -0.0668,0.0668 -0.01,0.0199 0.007,0.0457 0,0.0668 -0.0807,0.24223 -0.0317,0.0476 -0.13363,0.20045 -0.0276,0.0414 -0.0446,0.0891 -0.0668,0.13364 -0.0223,0.0445 -0.0446,0.0891 -0.0668,0.13363 -0.0223,0.0446 -0.0316,0.0984 -0.0668,0.13364 -0.0352,0.0352 -0.0984,0.0316 -0.13364,0.0668 -0.0704,0.0704 -0.0739,0.18759 -0.13363,0.26727 -0.0378,0.0504 -0.0891,0.0891 -0.13364,0.13364 -0.0762,0.0762 -0.2717,0.25091 -0.33409,0.33409 -0.0299,0.0398 -0.0316,0.0984 -0.0668,0.13363 -0.0352,0.0352 -0.0922,0.0392 -0.13364,0.0668 -0.0262,0.0175 -0.0445,0.0445 -0.0668,0.0668 -0.0428,0.0428 -0.20474,0.22559 -0.26727,0.26728 -0.0414,0.0276 -0.0984,0.0316 -0.13363,0.0668 -0.16229,0.16229 0.0199,0.0981 -0.13364,0.20045 -0.0414,0.0276 -0.0922,0.0392 -0.13363,0.0668 -0.0524,0.035 -0.0812,0.0987 -0.13364,0.13365 -0.0414,0.0276 -0.0922,0.0392 -0.13363,0.0668 -0.0577,0.0384 -0.14827,0.14827 -0.20046,0.20045 -0.0223,0.0223 -0.0387,0.0527 -0.0668,0.0668 -0.19663,0.0983 0.088,-0.15478 -0.13363,0.0668 -0.22161,0.22161 0.063,-0.0315 -0.13364,0.0668 -0.0282,0.0141 -0.0386,0.0527 -0.0668,0.0668 -0.0199,0.01 -0.0511,-0.0157 -0.0668,0 -0.0157,0.0157 0.0157,0.0511 0,0.0668 -0.0157,0.0157 -0.0469,-0.01 -0.0668,0 -0.0282,0.0141 -0.0387,0.0527 -0.0668,0.0668 -0.0199,0.01 -0.0511,-0.0157 -0.0668,0 -0.0157,0.0157 0.0157,0.0511 0,0.0668 -0.0399,0.0399 -0.13364,-0.0722 -0.13364,0.0668 0,0.0223 0.0473,0.01 0.0669,0 0.0282,-0.0141 0.0387,-0.0527 0.0668,-0.0668 0.063,-0.0315 0.133639,-0.0446 0.200459,-0.0668"
       id="path859-9-7-9-4"
       inkscape:connector-curvature="0"
       inkscape:export-xdpi="96"
       inkscape:export-ydpi="96" />
    <path
       style="fill:none;stroke:#000000;stroke-width:0.26458332px;stroke-linecap:butt;stroke-linejoin:miter;stroke-opacity:1"
       d="m 22.609742,50.330321 c 0.0181,0.27773 -0.29637,0.24409 -0.40091,0.4009 -0.0649,0.0974 -0.0417,0.13917 -0.13363,0.20045 -0.0414,0.0276 -0.0984,0.0316 -0.13364,0.0668 -0.0352,0.0352 -0.0369,0.0938 -0.0668,0.13362 -0.0378,0.0504 -0.0891,0.0891 -0.13364,0.13364 -0.0445,0.0445 -0.0832,0.0958 -0.13363,0.13363 -0.0398,0.0299 -0.0938,0.0369 -0.13363,0.0668 -0.13849,0.10386 -0.26349,0.29099 -0.40091,0.4009 -0.0781,0.12127 -0.2302,0.12254 -0.33409,0.20047 -0.10079,0.0756 -0.16648,0.19168 -0.26727,0.26726 -0.0398,0.0299 -0.0938,0.0369 -0.13364,0.0668 -0.12472,0.0935 -0.20936,0.24055 -0.33409,0.3341 -0.0398,0.0299 -0.0922,0.0392 -0.13363,0.0668 -0.0262,0.0175 -0.0406,0.0493 -0.0668,0.0668 -0.0414,0.0276 -0.0922,0.0392 -0.13364,0.0668 -0.0771,0.0514 -0.12336,0.14907 -0.20045,0.20046 -0.061,0.0407 -0.16216,0.057 -0.20046,0.13363 -0.01,0.0199 0.0157,0.0511 0,0.0668 -0.0157,0.0157 -0.0469,-0.01 -0.0668,0 -0.0802,0.0401 -0.12027,0.16037 -0.20045,0.20045 -0.0199,0.01 -0.0511,-0.0157 -0.0668,0 -0.0157,0.0157 0.0157,0.0511 0,0.0668 -0.0157,0.0157 -0.0511,-0.0157 -0.0668,0 -0.0157,0.0157 -0.0199,0.0569 0,0.0668 0.0398,0.0199 0.0891,0 0.13364,0"
       id="path861-2-5-1-7"
       inkscape:connector-curvature="0"
       inkscape:export-xdpi="96"
       inkscape:export-ydpi="96" />
    <path
       style="fill:none;stroke:#000000;stroke-width:0.26458332px;stroke-linecap:butt;stroke-linejoin:miter;stroke-opacity:1"
       d="m 29.692412,50.731221 c -0.14772,0.29544 -0.0632,0.19684 -0.20045,0.33408 -0.0446,0.0446 -0.0958,0.0832 -0.13364,0.13364 -0.0598,0.0797 -0.0739,0.18758 -0.13364,0.26727 -0.0378,0.0504 -0.0891,0.0891 -0.13363,0.13363 -0.0762,0.0762 -0.27171,0.25092 -0.33409,0.33409 -0.0299,0.0398 -0.0369,0.0938 -0.0668,0.13364 -0.0378,0.0504 -0.0891,0.0891 -0.13363,0.13363 -0.11137,0.11136 -0.22273,0.22273 -0.33409,0.33409 -0.0445,0.0445 -0.0891,0.0891 -0.13364,0.13363 -0.0223,0.0223 -0.0493,0.0406 -0.0668,0.0668 -0.0276,0.0414 -0.0316,0.0984 -0.0668,0.13363 -0.16229,0.16229 -0.0981,-0.0199 -0.20046,0.13364 -0.0276,0.0414 -0.0316,0.0984 -0.0668,0.13364 -0.16228,0.16228 -0.0981,-0.0199 -0.20045,0.13363 -0.0276,0.0414 -0.0392,0.0922 -0.0668,0.13363 -0.0185,0.0278 -0.24337,0.25532 -0.26727,0.26727 -0.0199,0.01 -0.0511,-0.0157 -0.0668,0 -0.0157,0.0157 0.01,0.0469 0,0.0668 -0.13904,0.27808 0.005,-0.0714 -0.13363,0.0668 -0.0157,0.0157 0.0157,0.0511 0,0.0668 -0.0157,0.0157 -0.0511,-0.0157 -0.0668,0 -0.0157,0.0157 -0.0157,0.0511 0,0.0668 0.0157,0.0157 0.0445,0 0.0668,0"
       id="path863-2-3-27-6"
       inkscape:connector-curvature="0"
       inkscape:export-xdpi="96"
       inkscape:export-ydpi="96" />
    <path
       style="fill:none;stroke:#000000;stroke-width:0.26458332px;stroke-linecap:butt;stroke-linejoin:miter;stroke-opacity:1"
       d="m 38.378692,50.998491 c 0.10264,0.22875 -0.14237,0.21793 -0.20045,0.33409 -0.01,0.0199 0.01,0.0469 0,0.0668 -0.0296,0.0592 -0.1599,0.13962 -0.20045,0.20044 -0.0276,0.0414 -0.0392,0.0922 -0.0668,0.13364 -0.16454,0.24681 0.0309,-0.11317 -0.13364,0.13364 -0.0276,0.0414 -0.0392,0.0922 -0.0668,0.13363 -0.0175,0.0262 -0.0445,0.0445 -0.0668,0.0668 -0.11136,0.11136 -0.22273,0.22272 -0.33409,0.33408 -0.0668,0.0668 -0.12485,0.14376 -0.20045,0.20045 -0.0398,0.0299 -0.0938,0.0369 -0.13363,0.0668 -0.0756,0.0567 -0.12183,0.14804 -0.20046,0.20045 -0.0414,0.0276 -0.0938,0.0369 -0.13363,0.0668 -0.0756,0.0567 -0.12183,0.14804 -0.20045,0.20046 -0.0414,0.0276 -0.0922,0.0392 -0.13363,0.0668 -0.0262,0.0175 -0.0406,0.0494 -0.0668,0.0668 -0.0414,0.0276 -0.0922,0.0392 -0.13364,0.0668 -0.0524,0.0349 -0.0773,0.10546 -0.13364,0.13363 -0.0199,0.01 -0.0469,-0.01 -0.0668,0 -0.0178,0.009 -0.19158,0.18271 -0.20044,0.20045 -0.01,0.0199 0.0157,0.0511 0,0.0668 -0.0891,0.0891 -0.0668,-0.11136 -0.0668,0.0668"
       id="path865-8-5-0-5"
       inkscape:connector-curvature="0"
       inkscape:export-xdpi="96"
       inkscape:export-ydpi="96" />
    <path
       style="fill:none;stroke:#000000;stroke-width:0.26458332px;stroke-linecap:butt;stroke-linejoin:miter;stroke-opacity:1"
       d="m 46.664052,50.798041 c 0.0698,0.22881 -0.20349,0.20653 -0.26727,0.33408 -0.01,0.0199 0.0157,0.0511 0,0.0668 -0.13825,0.13825 0.005,-0.21126 -0.13364,0.0668 -0.01,0.0199 0.01,0.0469 0,0.0668 -0.0141,0.0282 -0.0445,0.0445 -0.0668,0.0668 -0.0668,0.0668 -0.13363,0.13364 -0.20046,0.20045 -0.0223,0.0223 -0.0493,0.0406 -0.0668,0.0668 -0.0276,0.0414 -0.0392,0.0922 -0.0668,0.13364 -0.0175,0.0262 -0.0493,0.0406 -0.0668,0.0668 -0.0276,0.0414 -0.0392,0.0922 -0.0668,0.13363 -0.0524,0.0786 -0.14375,0.12487 -0.20045,0.20046 -0.0299,0.0398 -0.0316,0.0984 -0.0668,0.13364 -0.0352,0.0352 -0.0984,0.0316 -0.13365,0.0668 -0.0352,0.0352 -0.0392,0.0922 -0.0668,0.13364 -0.0175,0.0262 -0.0445,0.0445 -0.0668,0.0668 -0.0891,0.0891 -0.17817,0.17818 -0.26726,0.26726 -0.11138,0.11138 -0.22274,0.22274 -0.33409,0.33409 -0.0223,0.0223 -0.0445,0.0446 -0.0668,0.0668 -0.0223,0.0223 -0.0386,0.0527 -0.0668,0.0668 -0.0922,0.0461 -0.0598,-0.0809 -0.13365,0.0668 -0.01,0.0199 0.0157,0.0511 0,0.0668 -0.0157,0.0157 -0.0469,-0.01 -0.0668,0 -0.0802,0.0401 -0.12026,0.16036 -0.20044,0.20045 -0.0199,0.01 -0.0511,-0.0157 -0.0668,0 -0.0157,0.0157 0.01,0.0469 0,0.0668 -0.0173,0.0347 -0.20046,0.17972 -0.20046,0.20046 0,0.0223 0.0446,0 0.0668,0"
       id="path867-9-6-93-6"
       inkscape:connector-curvature="0"
       inkscape:export-xdpi="96"
       inkscape:export-ydpi="96" />
    <path
       style="fill:none;stroke:#000000;stroke-width:0.26458332px;stroke-linecap:butt;stroke-linejoin:miter;stroke-opacity:1"
       d="m 54.080782,50.998491 c -0.1981,0.0334 -0.25617,0.23759 -0.40091,0.33409 -0.0185,0.0123 -0.0469,-0.01 -0.0668,0 -0.0282,0.0141 -0.0406,0.0493 -0.0668,0.0668 -0.48447,0.24223 0.10564,-0.0704 -0.20045,0.13363 -0.0414,0.0276 -0.0922,0.0392 -0.13364,0.0668 -0.0983,0.0655 -0.16895,0.20172 -0.26727,0.26727 -0.48446,0.24223 0.10565,-0.0704 -0.20045,0.13364 -0.0829,0.0553 -0.18439,0.0784 -0.26727,0.13362 -0.0262,0.0175 -0.0406,0.0494 -0.0668,0.0668 -0.0124,0.008 -0.26299,0.12935 -0.26727,0.13364 -0.0352,0.0352 -0.0316,0.0984 -0.0668,0.13363 -0.0352,0.0352 -0.0922,0.0392 -0.13364,0.0668 -0.0983,0.0656 -0.16894,0.20172 -0.26726,0.26727 -0.0414,0.0276 -0.0984,0.0316 -0.13363,0.0668 -0.16229,0.16228 0.0199,0.0981 -0.13365,0.20045 -0.0414,0.0276 -0.0922,0.0392 -0.13362,0.0668 -0.0283,0.0189 -0.18664,0.17281 -0.20046,0.20046 -0.01,0.0199 0.01,0.0469 0,0.0668 -0.0401,0.0802 -0.16036,0.12027 -0.20045,0.20045 -0.01,0.0199 0.0157,0.0511 0,0.0668 -0.0157,0.0157 -0.0511,-0.0157 -0.0668,0 -0.0157,0.0157 0,0.0445 0,0.0668 -0.0223,0 -0.0511,-0.0157 -0.0668,0 -0.0157,0.0157 -0.0199,0.0768 0,0.0668 0.0563,-0.0282 0.0891,-0.0891 0.13363,-0.13363"
       id="path869-7-2-6-9"
       inkscape:connector-curvature="0"
       inkscape:export-xdpi="96"
       inkscape:export-ydpi="96" />
    <path
       style="fill:none;stroke:#000000;stroke-width:0.26458332px;stroke-linecap:butt;stroke-linejoin:miter;stroke-opacity:1"
       d="m 61.497502,51.065301 c -0.0891,0.0891 -0.18662,0.17048 -0.26728,0.26727 -0.10142,0.12172 -0.0186,0.12378 -0.13362,0.20046 -0.0414,0.0276 -0.0922,0.0392 -0.13364,0.0668 -0.0983,0.0656 -0.16895,0.20173 -0.26727,0.26727 -0.0414,0.0276 -0.0984,0.0316 -0.13363,0.0668 -0.0352,0.0352 -0.0316,0.0984 -0.0668,0.13363 -0.0704,0.0704 -0.19684,0.0632 -0.26727,0.13364 -0.0352,0.0352 -0.0316,0.0984 -0.0668,0.13363 -0.0704,0.0704 -0.18758,0.0739 -0.26727,0.13364 -0.289,0.289 0.0177,0.0105 -0.26727,0.20045 -0.0983,0.0656 -0.16895,0.20172 -0.26725,0.26727 -0.0414,0.0276 -0.0922,0.0392 -0.13365,0.0668 -0.0577,0.0384 -0.14826,0.14826 -0.20044,0.20045 -0.0352,0.0352 -0.16477,0.18261 -0.20045,0.20045 -0.0199,0.01 -0.0511,-0.0157 -0.0668,0 -0.0157,0.0157 0.01,0.0469 0,0.0668 -0.0141,0.0282 -0.0446,0.0445 -0.0668,0.0668 -0.0223,0.0223 -0.0386,0.0527 -0.0668,0.0668 -0.0199,0.01 -0.0469,-0.01 -0.0668,0 -0.0563,0.0282 -0.0773,0.10546 -0.13364,0.13363 -0.0891,0.0445 -0.0668,-0.0668 -0.0668,0.0668"
       id="path871-3-9-0-3"
       inkscape:connector-curvature="0"
       inkscape:export-xdpi="96"
       inkscape:export-ydpi="96" />
    <path
       style="fill:none;stroke:#000000;stroke-width:0.26458332px;stroke-linecap:butt;stroke-linejoin:miter;stroke-opacity:1"
       d="m 69.782802,50.931671 c -0.0891,0.0445 -0.17818,0.0891 -0.26727,0.13363 0,0.0223 0.0157,0.0511 0,0.0668 -0.0157,0.0157 -0.0511,-0.0157 -0.0668,0 -0.0157,0.0157 0.01,0.0469 0,0.0668 -0.0141,0.0282 -0.0527,0.0386 -0.0668,0.0668 -0.01,0.0199 0.0157,0.0511 0,0.0668 -0.0157,0.0157 -0.0469,-0.01 -0.0668,0 -0.0282,0.0141 -0.0445,0.0445 -0.0668,0.0668 -0.0223,0.0223 -0.0527,0.0386 -0.0668,0.0668 -0.01,0.0199 0.01,0.0469 0,0.0668 -0.0383,0.0766 -0.13941,0.093 -0.20044,0.13364 -0.0524,0.0349 -0.0891,0.0891 -0.13363,0.13362 -0.0668,0.0668 -0.13365,0.13366 -0.20046,0.20047 -0.0223,0.0223 -0.0406,0.0493 -0.0668,0.0668 -0.0414,0.0276 -0.0922,0.0392 -0.13363,0.0668 -0.0524,0.0349 -0.0891,0.0891 -0.13363,0.13364 -0.0668,0.0668 -0.13365,0.13362 -0.20046,0.20044 -0.0223,0.0223 -0.0445,0.0445 -0.0668,0.0668 -0.0223,0.0223 -0.0387,0.0527 -0.0668,0.0668 -0.0199,0.01 -0.0469,-0.01 -0.0668,0 -0.0802,0.0401 -0.12027,0.16036 -0.20045,0.20045 -0.0199,0.01 -0.0469,-0.01 -0.0668,0 -0.0282,0.0141 -0.0406,0.0494 -0.0668,0.0668 -0.0414,0.0276 -0.0922,0.0392 -0.13364,0.0668 -0.0524,0.0349 -0.0739,0.11371 -0.13363,0.13363 -0.0423,0.0141 -0.0914,-0.0141 -0.13364,0 -0.0299,0.01 -0.0445,0.0445 -0.0668,0.0668 -0.0764,0.0764 -0.0791,0.0932 -0.20045,0.13365 -0.0211,0.007 -0.0445,0 -0.0668,0 -0.0223,0.0223 -0.0386,0.0527 -0.0668,0.0668 -0.0199,0.01 -0.0511,-0.0157 -0.0668,0 -0.0157,0.0157 0.0157,0.0511 0,0.0668 -0.0334,0.0334 -0.16704,-0.0334 -0.20045,0 -0.0158,0.0157 -0.0199,0.0569 0,0.0668 0.0398,0.0199 0.0891,0 0.13363,0"
       id="path873-6-1-6-7"
       inkscape:connector-curvature="0"
       inkscape:export-xdpi="96"
       inkscape:export-ydpi="96" />
    <path
       style="opacity:1;fill:#00ffff;fill-opacity:1;stroke:none;stroke-width:1.5;stroke-linecap:round;stroke-linejoin:round;stroke-miterlimit:4;stroke-dasharray:none;stroke-opacity:1;paint-order:markers fill stroke"
       id="path883-1-0-2-4"
       sodipodi:type="arc"
       sodipodi:cx="32.133404"
       sodipodi:cy="31.372208"
       sodipodi:rx="5.0426621"
       sodipodi:ry="4.8442602"
       sodipodi:start="0"
       sodipodi:end="3.0578692"
       sodipodi:open="true"
       d="m 37.176066,31.372208 a 5.0426621,4.8442602 0 0 1 -4.831629,4.840016 5.0426621,4.8442602 0 0 1 -5.236032,-4.434912"
       inkscape:export-xdpi="96"
       inkscape:export-ydpi="96" />
    <path
       style="opacity:1;fill:#00ffff;fill-opacity:1;stroke:none;stroke-width:1.5;stroke-linecap:round;stroke-linejoin:round;stroke-miterlimit:4;stroke-dasharray:none;stroke-opacity:1;paint-order:markers fill stroke"
       id="path883-3-9-6-6-5"
       sodipodi:type="arc"
       sodipodi:cx="-32.130062"
       sodipodi:cy="-31.840675"
       sodipodi:rx="5.0426445"
       sodipodi:ry="4.8442602"
       sodipodi:start="0"
       sodipodi:end="3.0578692"
       sodipodi:open="true"
       d="m -27.087418,-31.840675 a 5.0426445,4.8442602 0 0 1 -4.831612,4.840016 5.0426445,4.8442602 0 0 1 -5.236013,-4.434912"
       transform="matrix(-0.99999985,5.5424916e-4,-3.6498742e-4,-0.99999993,0,0)"
       inkscape:export-xdpi="96"
       inkscape:export-ydpi="96" />
    <path
       style="fill:#808000;stroke:#d60000;stroke-width:0.26458332px;stroke-linecap:butt;stroke-linejoin:miter;stroke-opacity:1"
       d="m 26.410682,34.858411 11.87306,-5.83596 -0.06,0.0294"
       id="path952-9-3-2-1-2"
       inkscape:connector-curvature="0"
       sodipodi:nodetypes="ccc"
       inkscape:export-xdpi="96"
       inkscape:export-ydpi="96" />
    <path
       style="fill:#808000;stroke:#d60000;stroke-width:0.26458332px;stroke-linecap:butt;stroke-linejoin:miter;stroke-opacity:1"
       d="m 36.169452,28.926191 2.12457,0.0968 -0.0103,-5.3e-4"
       id="path952-5-1-6-6-8-5"
       inkscape:connector-curvature="0"
       sodipodi:nodetypes="ccc"
       inkscape:export-xdpi="96"
       inkscape:export-ydpi="96" />
    <path
       style="fill:#808000;stroke:#d60000;stroke-width:0.26458332px;stroke-linecap:butt;stroke-linejoin:miter;stroke-opacity:1"
       d="m 37.166712,30.885571 1.06295,-1.8421 -0.006,0.009"
       id="path952-5-2-2-7-1-7-4"
       inkscape:connector-curvature="0"
       sodipodi:nodetypes="ccc"
       inkscape:transform-center-y="0.39758639"
       inkscape:transform-center-x="0.00429256"
       inkscape:export-xdpi="96"
       inkscape:export-ydpi="96" />
    <path
       style="fill:none;stroke:#000000;stroke-width:0.26458332px;stroke-linecap:butt;stroke-linejoin:miter;stroke-opacity:1"
       d="m 79.943542,48.032871 0.13981,9.01183 -7.9e-4,-0.0455"
       id="path952-3-4-53-5-3"
       inkscape:connector-curvature="0"
       sodipodi:nodetypes="ccc"
       inkscape:export-xdpi="96"
       inkscape:export-ydpi="96" />
    <path
       style="fill:none;stroke:#000000;stroke-width:0.26458332px;stroke-linecap:butt;stroke-linejoin:miter;stroke-opacity:1"
       d="m 80.832202,55.771391 -0.75255,1.27949 0.004,-0.006"
       id="path952-5-6-7-5-9-0"
       inkscape:connector-curvature="0"
       sodipodi:nodetypes="ccc"
       inkscape:export-xdpi="96"
       inkscape:export-ydpi="96" />
    <path
       style="fill:none;stroke:#000000;stroke-width:0.26458332px;stroke-linecap:butt;stroke-linejoin:miter;stroke-opacity:1"
       d="m 79.174732,55.813261 0.91175,1.19203 -0.004,-0.006"
       id="path952-5-2-0-8-62-2-7"
       inkscape:connector-curvature="0"
       sodipodi:nodetypes="ccc"
       inkscape:transform-center-y="-0.11870296"
       inkscape:transform-center-x="0.26954144"
       inkscape:export-xdpi="96"
       inkscape:export-ydpi="96" />
    <path
       style="fill:none;stroke:#000000;stroke-width:0.26458332px;stroke-linecap:butt;stroke-linejoin:miter;stroke-opacity:1"
       d="m 79.931912,48.082991 h 9.97771 -0.0504"
       id="path952-6-4-9-2-8"
       inkscape:connector-curvature="0"
       sodipodi:nodetypes="ccc"
       inkscape:export-xdpi="96"
       inkscape:export-ydpi="96" />
    <path
       style="fill:none;stroke:#000000;stroke-width:0.26458332px;stroke-linecap:butt;stroke-linejoin:miter;stroke-opacity:1"
       d="m 88.510612,47.388761 1.4058,0.69763 -0.007,-0.003"
       id="path952-5-26-5-1-8-6"
       inkscape:connector-curvature="0"
       sodipodi:nodetypes="ccc"
       inkscape:export-xdpi="96"
       inkscape:export-ydpi="96" />
    <path
       style="fill:none;stroke:#000000;stroke-width:0.26458332px;stroke-linecap:butt;stroke-linejoin:miter;stroke-opacity:1"
       d="m 88.533742,48.886371 1.33229,-0.80679 -0.007,0.003"
       id="path952-5-2-1-0-2-9-8"
       inkscape:connector-curvature="0"
       sodipodi:nodetypes="ccc"
       inkscape:transform-center-y="0.24178379"
       inkscape:transform-center-x="0.13517488"
       inkscape:export-xdpi="96"
       inkscape:export-ydpi="96" />
    <path
       style="fill:none;stroke:#000000;stroke-width:0.26458332px;stroke-linecap:butt;stroke-linejoin:miter;stroke-opacity:1"
       d="m 79.931912,48.082991 -5.27839,2.61724 0.0266,-0.0132"
       id="path952-6-8-3-7-7-8"
       inkscape:connector-curvature="0"
       sodipodi:nodetypes="ccc"
       inkscape:export-xdpi="96"
       inkscape:export-ydpi="96" />
    <path
       style="fill:none;stroke:#000000;stroke-width:0.26458332px;stroke-linecap:butt;stroke-linejoin:miter;stroke-opacity:1"
       d="m 76.242862,50.703871 -1.60394,-0.0119 0.008,8e-5"
       id="path952-5-26-7-6-0-3-4"
       inkscape:connector-curvature="0"
       sodipodi:nodetypes="ccc"
       inkscape:export-xdpi="96"
       inkscape:export-ydpi="96" />
    <path
       style="fill:none;stroke:#000000;stroke-width:0.26458332px;stroke-linecap:butt;stroke-linejoin:miter;stroke-opacity:1"
       d="m 75.436142,49.395321 -0.74929,1.28105 0.004,-0.006"
       id="path952-5-2-1-9-1-9-6-3"
       inkscape:connector-curvature="0"
       sodipodi:nodetypes="ccc"
       inkscape:transform-center-y="-0.27077309"
       inkscape:transform-center-x="0.0079469934"
       inkscape:export-xdpi="96"
       inkscape:export-ydpi="96" />
    <text
       xml:space="preserve"
       style="font-style:normal;font-weight:normal;font-size:3.79300499px;line-height:1.25;font-family:sans-serif;letter-spacing:0px;word-spacing:0px;fill:#000000;fill-opacity:1;stroke:none;stroke-width:0.26458332"
       x="77.291527"
       y="59.599632"
       id="text1140-0-3-1-1"
       transform="scale(1.0521788,0.95040881)"
       inkscape:export-xdpi="96"
       inkscape:export-ydpi="96"><tspan
         sodipodi:role="line"
         id="tspan1138-6-6-29-4"
         x="77.291527"
         y="59.599632"
         style="stroke-width:0.26458332">z</tspan></text>
    <text
       xml:space="preserve"
       style="font-style:normal;font-weight:normal;font-size:3.79300499px;line-height:1.25;font-family:sans-serif;letter-spacing:0px;word-spacing:0px;fill:#000000;fill-opacity:1;stroke:none;stroke-width:0.26458332"
       x="69.16375"
       y="56.687149"
       id="text1144-3-0-3-9"
       transform="scale(1.0521788,0.95040881)"
       inkscape:export-xdpi="96"
       inkscape:export-ydpi="96"><tspan
         sodipodi:role="line"
         id="tspan1142-2-6-1-2"
         x="69.16375"
         y="56.687149"
         style="stroke-width:0.26458332">y</tspan></text>
    <text
       xml:space="preserve"
       style="font-style:normal;font-weight:normal;font-size:3.79300499px;line-height:1.25;font-family:sans-serif;letter-spacing:0px;word-spacing:0px;fill:#000000;fill-opacity:1;stroke:none;stroke-width:0.26458332"
       x="83.522774"
       y="48.925194"
       id="text1148-0-2-94-0"
       transform="scale(1.0521788,0.95040881)"
       inkscape:export-xdpi="96"
       inkscape:export-ydpi="96"><tspan
         sodipodi:role="line"
         id="tspan1146-6-6-7-6"
         x="83.522774"
         y="48.925194"
         style="stroke-width:0.26458332">x</tspan></text>
    <text
       xml:space="preserve"
       style="font-style:normal;font-weight:normal;font-size:5.29166651px;line-height:1.25;font-family:sans-serif;letter-spacing:0px;word-spacing:0px;fill:#000000;fill-opacity:1;stroke:none;stroke-width:0.26458332"
       x="1.9162788"
       y="33.419998"
       id="text406-3-8-8"
       inkscape:export-xdpi="96"
       inkscape:export-ydpi="96"><tspan
         sodipodi:role="line"
         id="tspan404-6-4-9"
         x="1.9162788"
         y="33.419998"
         style="font-size:5.29166651px;stroke-width:0.26458332">z=0</tspan></text>
    <path
       style="opacity:1;fill:#00ffff;fill-opacity:1;stroke:none;stroke-width:1.5;stroke-linecap:round;stroke-linejoin:round;stroke-miterlimit:4;stroke-dasharray:none;stroke-opacity:1;paint-order:markers fill stroke"
       id="path883-1-0-2-5-2"
       sodipodi:type="arc"
       sodipodi:cx="62.118729"
       sodipodi:cy="31.372177"
       sodipodi:rx="5.0426621"
       sodipodi:ry="4.8442602"
       sodipodi:start="0"
       sodipodi:end="3.0578692"
       sodipodi:open="true"
       d="M 67.161391,31.372177 A 5.0426621,4.8442602 0 0 1 62.329762,36.212193 5.0426621,4.8442602 0 0 1 57.09373,31.777282"
       inkscape:export-xdpi="96"
       inkscape:export-ydpi="96" />
    <path
       style="opacity:1;fill:#00ffff;fill-opacity:1;stroke:none;stroke-width:1.5;stroke-linecap:round;stroke-linejoin:round;stroke-miterlimit:4;stroke-dasharray:none;stroke-opacity:1;paint-order:markers fill stroke"
       id="path883-3-9-6-6-0-6"
       sodipodi:type="arc"
       sodipodi:cx="-62.115314"
       sodipodi:cy="-31.857338"
       sodipodi:rx="5.0426445"
       sodipodi:ry="4.8442602"
       sodipodi:start="0"
       sodipodi:end="3.0578692"
       sodipodi:open="true"
       d="m -57.07267,-31.857338 a 5.0426445,4.8442602 0 0 1 -4.831612,4.840016 5.0426445,4.8442602 0 0 1 -5.236014,-4.434911"
       transform="matrix(-0.99999985,5.5424916e-4,-3.6498742e-4,-0.99999993,0,0)"
       inkscape:export-xdpi="96"
       inkscape:export-ydpi="96" />
    <path
       style="fill:#808000;stroke:#d60000;stroke-width:0.26458332px;stroke-linecap:butt;stroke-linejoin:miter;stroke-opacity:1"
       d="m 56.396012,34.858391 11.87307,-5.83596 -0.06,0.0294"
       id="path952-9-3-2-1-3-6"
       inkscape:connector-curvature="0"
       sodipodi:nodetypes="ccc"
       inkscape:export-xdpi="96"
       inkscape:export-ydpi="96" />
    <path
       style="fill:#808000;stroke:#d60000;stroke-width:0.26458332px;stroke-linecap:butt;stroke-linejoin:miter;stroke-opacity:1"
       d="m 66.154792,28.926171 2.12457,0.0968 -0.0103,-5.3e-4"
       id="path952-5-1-6-6-8-6-4"
       inkscape:connector-curvature="0"
       sodipodi:nodetypes="ccc"
       inkscape:export-xdpi="96"
       inkscape:export-ydpi="96" />
    <path
       style="fill:#808000;stroke:#d60000;stroke-width:0.26458332px;stroke-linecap:butt;stroke-linejoin:miter;stroke-opacity:1"
       d="m 67.152052,30.885551 1.06295,-1.8421 -0.006,0.009"
       id="path952-5-2-2-7-1-7-1-9"
       inkscape:connector-curvature="0"
       sodipodi:nodetypes="ccc"
       inkscape:transform-center-y="0.39758639"
       inkscape:transform-center-x="0.00429256"
       inkscape:export-xdpi="96"
       inkscape:export-ydpi="96" />
    <path
       style="fill:none;stroke:#d60000;stroke-width:0.26458332px;stroke-linecap:butt;stroke-linejoin:miter;stroke-opacity:1"
       d="m 49.682792,47.684011 c -0.1132,-0.1785 -0.22647,-0.35705 -0.33972,-0.53554 -0.0164,-0.0251 -0.0528,-0.0466 -0.0491,-0.0762 0.005,-0.0424 0.0703,-0.0821 0.0755,-0.12471 0.01,-0.0632 -0.20286,-0.24271 -0.19402,-0.30609 0.006,-0.0423 0.0703,-0.0821 0.0755,-0.12472 0.0117,-0.0805 -0.15646,-0.14909 -0.14548,-0.22955 0.006,-0.0424 0.0703,-0.0821 0.0755,-0.12481 0.008,-0.06 -0.10546,-0.0929 -0.0966,-0.15325 0.005,-0.0423 0.0703,-0.0821 0.0755,-0.12452 0.008,-0.06 -0.10548,-0.093 -0.0967,-0.15307 0.0112,-0.0849 0.14021,-0.16418 0.15136,-0.24919 0.0188,-0.13872 -0.19378,-0.0101 0.0272,-0.201 0.0298,-0.0263 0.10635,-0.0189 0.12427,-0.0483 0.0181,-0.0291 -0.066,-0.0474 -0.0491,-0.0762 -6.4e-4,-0.003 0.34228,-0.13276 0.37245,-0.14425 0.0559,-0.0218 0.32728,-0.1413 0.37246,-0.14425 0.12526,-0.008 0.22025,0.0651 0.34537,0.0568 0.0443,-0.004 0.08,-0.0449 0.12411,-0.0482 0.0627,-0.004 0.11009,0.0326 0.17265,0.0289 0.0444,-0.004 0.08,-0.0449 0.12427,-0.0483 0.12526,-0.008 0.22014,0.0652 0.34539,0.0567 0.0444,-0.004 0.08,-0.0449 0.12426,-0.0483 0.0627,-0.004 0.11033,0.0323 0.1728,0.0279 0.0882,-0.006 0.15972,-0.09046 0.24851,-0.0958 0.0627,-0.0041 0.11017,0.03241 0.17267,0.02887 0.0389,-0.002 0.43168,-0.167267 0.49659,-0.192409 0.065,-0.02499 0.47034,-0.169687 0.49661,-0.192397 0.0843,-0.07283 0.0666,-0.176512 0.15133,-0.249159 0.0298,-0.02623 0.0943,-0.02226 0.12429,-0.04828 0.0414,-0.0371 0.0503,-0.08307 0.0755,-0.124538 0.0263,-0.04125 0.0703,-0.08207 0.0755,-0.124706 0.004,-0.03006 -0.0659,-0.04772 -0.0491,-0.07623 0.0182,-0.02923 0.10634,-0.0189 0.12428,-0.04828 0.0352,-0.05861 -0.13269,-0.09426 -0.0966,-0.153248 0.0182,-0.02923 0.10634,-0.0189 0.12426,-0.04827 0.002,-0.0037 -0.13389,-0.210912 -0.14554,-0.229477 -0.1296,-0.203915 -0.2589,-0.40799 -0.38842,-0.611948 -0.0491,-0.07623 -0.0602,-0.172169 -0.14542,-0.229645 -0.0403,-0.027 -0.12579,-0.0071 -0.17277,-0.02788 -0.033,-0.01557 -0.0327,-0.05076 -0.0491,-0.07623 -0.0326,-0.05048 -0.0644,-0.102034 -0.0966,-0.15326 -0.11339,-0.178405 -0.22648,-0.357051 -0.33981,-0.5355 -0.0237,-0.03579 -0.24569,-0.377003 -0.24262,-0.382515 0.0182,-0.02923 0.10634,-0.0189 0.12411,-0.04829 0.0182,-0.02913 -0.0659,-0.04772 -0.0491,-0.07623 0.0354,-0.05878 0.21271,-0.03699 0.24853,-0.0958 0.0182,-0.02913 -0.0659,-0.04772 -0.0491,-0.07623 -6.5e-4,-0.0031 0.34237,-0.132681 0.37244,-0.144245 0.0417,-0.01619 0.0838,-0.05427 0.12428,-0.04828 0.0405,0.0069 0.007,0.06997 0.0491,0.07623 0.0407,0.0059 0.08,-0.04486 0.12419,-0.04828 0.0392,-0.0024 0.48868,0.0713 0.51803,0.08521 0.1296,0.2039 -0.0575,-0.0089 0.17278,0.02788 0.0909,0.01498 0.13057,0.08947 0.22096,0.1053 0.0406,0.0069 0.083,-0.03221 0.12428,-0.04828 0.0576,0.009 0.12134,0.0106 0.17279,0.02788 0.0812,0.02761 0.13958,0.07756 0.22099,0.105304 0.0517,0.01732 0.12586,0.0071 0.1728,0.02788 0.033,0.01557 0.0161,0.0607 0.0491,0.07623 0.13284,0.06285 0.38519,0.02256 0.51803,0.08521 0.0331,0.01547 0.007,0.06984 0.0491,0.07623 0.35731,0.05869 -0.16403,-0.23778 0.29679,-0.01971 0.033,0.01557 0.016,0.06048 0.0491,0.07623 0.0462,0.02219 0.12611,0.0061 0.1728,0.02788 0.033,0.01557 0.007,0.06996 0.0491,0.07623 0.0407,0.0059 0.08,-0.04487 0.12427,-0.04828 0.0627,-0.0041 0.11017,0.03242 0.17278,0.02788 0.0443,-0.0037 0.0838,-0.05426 0.12426,-0.04827 0.0406,0.0069 0.007,0.06996 0.0491,0.07623 0.0409,0.0069 0.0831,-0.0322 0.12426,-0.04827 0.0559,-0.02176 0.34213,-0.117865 0.37247,-0.144261 0.0422,-0.03642 0.0503,-0.08307 0.0756,-0.124731 0.0263,-0.04125 0.0703,-0.08207 0.0755,-0.124706 0.004,-0.03006 -0.0659,-0.04762 -0.0491,-0.07623 0.0182,-0.02923 0.10635,-0.0189 0.12427,-0.04828 0.0379,-0.06243 -0.18334,-0.167176 -0.14553,-0.229479 0.0182,-0.02923 0.10634,-0.0189 0.12425,-0.04827 0.0156,-0.02551 -0.15103,-0.18969 -0.14558,-0.229535 0.005,-0.04235 0.0702,-0.08199 0.0754,-0.124717 0.01,-0.06321 -0.20285,-0.242691 -0.19402,-0.30608 0.005,-0.04235 0.0784,-0.08362 0.0755,-0.124716 -0.007,-0.08804 -0.0966,-0.153248 -0.14542,-0.229645 -0.1296,-0.2039 -0.25889,-0.407977 -0.38843,-0.611955 -0.0221,-0.0341 -0.14975,-0.198903 -0.14549,-0.229573 0.005,-0.04235 0.0703,-0.08207 0.0755,-0.124706 0.0107,-0.08059 -0.15645,-0.149107 -0.14542,-0.229654 0.25077,-0.41327 -0.0124,0.0948 0.0272,-0.200999 0.0565,-0.418486 0.0427,0.08512 0.19954,-0.173011 0.0182,-0.02913 -0.0658,-0.04774 -0.0491,-0.07623 0.0182,-0.02923 0.083,-0.03221 0.12427,-0.04828 0.0418,-0.0162 0.083,-0.03231 0.12421,-0.04838 0.0419,-0.01511 0.08,-0.04487 0.12426,-0.04828 0.0627,-0.004 0.11032,0.03253 0.1728,0.02788 0.0445,-0.0037 0.0838,-0.05416 0.12427,-0.04828 0.0405,0.0069 0.0161,0.0607 0.0491,0.07623 0.093,0.04464 0.25234,0.01198 0.3454,0.05675 0.0331,0.01547 0.016,0.06048 0.0491,0.07623 0.46005,0.218722 -0.0614,-0.07792 0.29688,-0.01971 0.0406,0.0069 0.007,0.06996 0.0491,0.07623 0.0407,0.0059 0.0831,-0.05506 0.12427,-0.04828 0.0407,0.0059 0.007,0.06996 0.0491,0.07623 0.0409,0.0069 0.08,-0.04487 0.12427,-0.04828 0.0627,-0.0041 0.10996,0.0326 0.17279,0.02788 0.0444,-0.0037 0.0801,-0.04485 0.12426,-0.04827 0.0627,-0.0042 0.1101,0.03261 0.17264,0.02887 0.11872,-0.0072 0.25368,-0.136476 0.37245,-0.144227 0.0625,-0.0039 0.11017,0.03241 0.17251,0.02885 0.0169,2.4e-5 0.60962,-0.23085 0.62074,-0.240558 0.0843,-0.07283 0.0666,-0.176429 0.15137,-0.249175 0.0297,-0.02615 0.10634,-0.0189 0.12427,-0.04828 0.0504,-0.08327 -0.14781,-0.06949 -0.0966,-0.153248 0.0182,-0.02913 0.10635,-0.0189 0.12427,-0.04828 0.0377,-0.06213 -0.18344,-0.167137 -0.14557,-0.229523 0.0183,-0.02921 0.10635,-0.0189 0.12427,-0.04828 0.0182,-0.02923 -0.0328,-0.05049 -0.0491,-0.07623 -0.0933,-0.146594 -0.0197,-0.139865 -0.26973,-0.181449"
       id="path1252-1-8-0-5"
       inkscape:connector-curvature="0"
       inkscape:export-xdpi="96"
       inkscape:export-ydpi="96" />
    <path
       style="fill:none;stroke:#d60000;stroke-width:0.26458332px;stroke-linecap:butt;stroke-linejoin:miter;stroke-opacity:1"
       d="m 59.686442,39.804813 c 0.0181,-0.134053 0.0364,-0.268139 0.0545,-0.402204 0.0254,-0.04176 0.0702,-0.08199 0.0755,-0.124809 0.005,-0.03025 -0.0527,-0.04645 -0.0491,-0.07623 0.006,-0.04241 0.0702,-0.08199 0.0756,-0.12473 0.005,-0.03035 -0.0528,-0.04656 -0.0491,-0.07623 0.0112,-0.08477 0.14016,-0.164142 0.15134,-0.249167 0.005,-0.03035 -0.0527,-0.04645 -0.0491,-0.07623 0.006,-0.04242 0.0702,-0.08199 0.0755,-0.124527 0.005,-0.03044 -0.0528,-0.04655 -0.0491,-0.07623 0.006,-0.04242 0.0702,-0.08199 0.0754,-0.124536 0.005,-0.03025 -0.0527,-0.04645 -0.0491,-0.07623 0.006,-0.04244 0.0702,-0.0819 0.0755,-0.124706 0.005,-0.03035 -0.0522,-0.04739 -0.0491,-0.07623 0.006,-0.04244 0.0702,-0.08199 0.0755,-0.124706 0.005,-0.03025 -0.0527,-0.04645 -0.0491,-0.07623 0.006,-0.04242 0.0702,-0.0819 0.0755,-0.124716 0.005,-0.03035 -0.0527,-0.04645 -0.0491,-0.07623 0.006,-0.04242 0.0702,-0.08199 0.0756,-0.124731 0.005,-0.03006 -0.0528,-0.04656 -0.0491,-0.07623 0.006,-0.04242 0.0701,-0.08189 0.0755,-0.124706 0.008,-0.05975 -0.13269,-0.09426 -0.0966,-0.153236 0.0183,-0.02921 0.10635,-0.0189 0.12403,-0.0482 0.0182,-0.02923 -0.0658,-0.04774 -0.0491,-0.07623 0.0182,-0.02923 0.10612,-0.01887 0.12426,-0.04828 0.0353,-0.05851 -0.13269,-0.09426 -0.0966,-0.153236 0.0182,-0.02923 0.10633,-0.0189 0.12418,-0.04828 0.0182,-0.02923 -0.007,-0.06996 -0.0491,-0.07623 -0.0866,-0.01346 -0.28616,0.158453 -0.37247,0.144249 -0.081,-0.0138 -0.0157,-0.139758 -0.0966,-0.15326 -0.0406,-0.0069 -0.0833,0.05522 -0.12429,0.04828 -0.0405,-0.0069 -0.007,-0.07004 -0.0491,-0.07623 -0.35734,-0.05869 0.16382,0.237846 -0.29688,0.01971 -0.0331,-0.01567 -0.007,-0.07004 -0.0491,-0.07623 -0.0405,-0.0069 -0.0834,0.05522 -0.12426,0.04827 -0.0407,-0.0059 -0.0161,-0.0607 -0.0491,-0.07623 -0.0471,-0.0218 -0.12587,-0.0071 -0.17278,-0.02787 -0.033,-0.01557 -0.007,-0.06996 -0.0491,-0.07623 -0.0404,-0.0069 -0.0834,0.05522 -0.12419,0.04828 -0.0405,-0.0069 -0.016,-0.06048 -0.0491,-0.07623 -0.0471,-0.0218 -0.12587,-0.0071 -0.17282,-0.02788 -0.033,-0.01557 -0.016,-0.06048 -0.0491,-0.07623 -0.0462,-0.0222 -0.12612,-0.0061 -0.1728,-0.02788 -0.033,-0.01557 -0.0161,-0.06048 -0.0491,-0.07623 -0.093,-0.04473 -0.25232,-0.01199 -0.34538,-0.05675 -0.033,-0.01557 -0.0161,-0.0607 -0.0491,-0.07623 -0.0928,-0.04463 -0.2523,-0.01198 -0.34537,-0.05675 -0.0331,-0.01567 -0.007,-0.06996 -0.0491,-0.07623 -0.0407,-0.0059 -0.0837,0.05417 -0.12429,0.04828 -0.0409,-0.0069 -0.007,-0.06984 -0.0491,-0.07623 -0.081,-0.0138 -0.16701,0.109353 -0.24853,0.09581 -0.0406,-0.0069 -0.007,-0.06996 -0.0491,-0.07623 -0.081,-0.0138 -0.16698,0.109339 -0.24851,0.0958 -0.0405,-0.0069 -0.007,-0.06996 -0.0491,-0.07623 -0.0407,-0.0059 -0.10634,0.0189 -0.12411,0.04819 -0.005,0.01096 0.12967,0.22618 0.14561,0.229534 0.0407,0.0059 0.083,-0.03221 0.12426,-0.04827"
       id="path1254-2-7-6-0"
       inkscape:connector-curvature="0"
       inkscape:export-xdpi="96"
       inkscape:export-ydpi="96" />
    <text
       xml:space="preserve"
       style="font-style:normal;font-weight:normal;font-size:5.29166651px;line-height:1.25;font-family:sans-serif;letter-spacing:0px;word-spacing:0px;fill:#000000;fill-opacity:1;stroke:none;stroke-width:0.26458332"
       x="23.526628"
       y="23.347717"
       id="text406-3-8-3-4"
       inkscape:export-xdpi="96"
       inkscape:export-ydpi="96"><tspan
         sodipodi:role="line"
         id="tspan404-6-4-2-8"
         x="23.526628"
         y="23.347717"
         style="font-size:5.29166651px;stroke-width:0.26458332">x<tspan
   style="font-size:3.17499995px;stroke-width:0.26458332"
   id="tspan638-7">1</tspan>=-a/2</tspan></text>
    <text
       xml:space="preserve"
       style="font-style:normal;font-weight:normal;font-size:5.29166651px;line-height:1.25;font-family:sans-serif;letter-spacing:0px;word-spacing:0px;fill:#000000;fill-opacity:1;stroke:none;stroke-width:0.26458332"
       x="54.086506"
       y="23.347504"
       id="text406-3-8-3-0-1"
       inkscape:export-xdpi="96"
       inkscape:export-ydpi="96"><tspan
         sodipodi:role="line"
         id="tspan404-6-4-2-6-7"
         x="54.086506"
         y="23.347504"
         style="font-size:5.29166651px;stroke-width:0.26458332">x<tspan
   style="font-size:3.17499995px;stroke-width:0.26458332"
   id="tspan661-2">2</tspan>=a/2</tspan></text>
    <path
       style="fill:none;stroke:#d60000;stroke-width:0.26458332px;stroke-linecap:butt;stroke-linejoin:miter;stroke-opacity:1"
       d="m 35.005662,37.13991 c 0.17658,-0.116174 0.35323,-0.232377 0.52981,-0.348591 0.0248,-0.01685 0.0456,-0.05358 0.0755,-0.05034 0.0424,0.0048 0.0832,0.06891 0.12596,0.07349 0.0633,0.0082 0.2393,-0.206864 0.30281,-0.199094 0.0423,0.0048 0.0832,0.06891 0.12596,0.07349 0.0806,0.01048 0.14648,-0.158916 0.2271,-0.149286 0.0425,0.0048 0.0833,0.06891 0.12605,0.07339 0.0601,0.0071 0.0911,-0.106949 0.15162,-0.09914 0.0425,0.0048 0.0833,0.06892 0.12577,0.07339 0.0601,0.0071 0.0912,-0.106946 0.15144,-0.09924 0.085,0.0095 0.16648,0.137454 0.25167,0.147187 0.13902,0.01637 0.007,-0.193921 0.20143,0.02389 0.0268,0.02929 0.0207,0.106022 0.0504,0.123463 0.0295,0.01764 0.0463,-0.06677 0.0754,-0.05045 0.003,-6.82e-4 0.13844,0.340019 0.15043,0.369982 0.0227,0.05553 0.14674,0.324897 0.15043,0.370011 0.0104,0.125108 -0.0614,0.221316 -0.051,0.346276 0.004,0.0443 0.0462,0.07915 0.0503,0.123281 0.005,0.06261 -0.0309,0.110628 -0.026,0.173117 0.004,0.04441 0.0462,0.07915 0.0504,0.123453 0.0104,0.125098 -0.0615,0.221195 -0.051,0.346285 0.004,0.04441 0.0462,0.07915 0.0504,0.123442 0.005,0.06261 -0.0305,0.11085 -0.025,0.173236 0.007,0.08814 0.0932,0.158191 0.0999,0.246877 0.005,0.06261 -0.0306,0.110692 -0.0259,0.17313 0.003,0.03874 0.17444,0.428837 0.20067,0.493321 0.026,0.06458 0.1775,0.467448 0.20063,0.493331 0.0742,0.08305 0.1776,0.06362 0.25165,0.147167 0.0266,0.02929 0.0238,0.09384 0.0504,0.123461 0.0378,0.04079 0.0839,0.04893 0.12578,0.07339 0.0417,0.02566 0.0833,0.06892 0.12596,0.07349 0.0301,0.0035 0.0466,-0.06667 0.0755,-0.05044 0.0296,0.01774 0.0207,0.106012 0.0504,0.123463 0.0591,0.03417 0.092,-0.134247 0.15162,-0.09913 0.0295,0.01774 0.0207,0.106011 0.0504,0.123442 0.004,0.002 0.20865,-0.137388 0.22702,-0.149338 0.20173,-0.132972 0.40362,-0.26567 0.60539,-0.398572 0.0754,-0.05045 0.17114,-0.06311 0.2272,-0.149224 0.0263,-0.04073 0.005,-0.125911 0.025,-0.173205 0.015,-0.03334 0.0502,-0.0335 0.0754,-0.05045 0.0499,-0.0335 0.10091,-0.06609 0.15163,-0.09914 0.1765,-0.116346 0.35323,-0.232388 0.52977,-0.348683 0.0353,-0.02426 0.37286,-0.251936 0.37842,-0.248955 0.0295,0.01774 0.0207,0.106002 0.0504,0.123293 0.0295,0.01774 0.0466,-0.06667 0.0755,-0.05034 0.0593,0.03438 0.0406,0.212049 0.0999,0.246889 0.0294,0.01774 0.0466,-0.06667 0.0754,-0.05035 0.003,-6.81e-4 0.13837,0.340119 0.15043,0.369993 0.0168,0.04131 0.0556,0.08292 0.0504,0.123452 -0.005,0.04074 -0.0699,0.0087 -0.0755,0.05034 -0.005,0.04084 0.0462,0.07915 0.0504,0.123373 0.003,0.03914 -0.0632,0.489796 -0.0766,0.51938 -0.20172,0.132952 0.008,-0.05769 -0.025,0.173225 -0.0133,0.09109 -0.0873,0.132039 -0.10164,0.222688 -0.005,0.04074 0.0336,0.08242 0.0504,0.123442 -0.008,0.05779 -0.008,0.121558 -0.025,0.173236 -0.0263,0.08164 -0.0752,0.140855 -0.10164,0.222707 -0.0164,0.05201 -0.005,0.12598 -0.025,0.173245 -0.015,0.03334 -0.0605,0.01681 -0.0755,0.05034 -0.0606,0.133866 -0.016,0.385512 -0.0766,0.51938 -0.0149,0.03333 -0.0698,0.0087 -0.0755,0.05044 -0.0527,0.358233 0.23501,-0.167976 0.0247,0.296416 -0.015,0.03334 -0.0602,0.01681 -0.0754,0.05045 -0.0215,0.04652 -0.004,0.126206 -0.025,0.173245 -0.015,0.03333 -0.0698,0.0087 -0.0754,0.05045 -0.005,0.04084 0.0462,0.07915 0.0504,0.123442 0.005,0.06261 -0.0307,0.110691 -0.025,0.173226 0.004,0.04431 0.0556,0.08292 0.0504,0.123441 -0.005,0.04074 -0.0699,0.0087 -0.0755,0.05034 -0.006,0.04102 0.0336,0.08252 0.0504,0.123452 0.0227,0.05553 0.12355,0.340111 0.15045,0.370012 0.0372,0.04158 0.084,0.04893 0.12596,0.07349 0.0417,0.02566 0.0833,0.06892 0.12596,0.07349 0.0301,0.0035 0.0465,-0.06668 0.0754,-0.05045 0.0295,0.01774 0.0207,0.106022 0.0504,0.123462 0.0631,0.03684 0.1641,-0.186111 0.22703,-0.149347 0.0295,0.01774 0.0207,0.106012 0.0504,0.123443 0.0258,0.01527 0.18714,-0.15417 0.22707,-0.149387 0.0425,0.0048 0.0832,0.06881 0.12596,0.07339 0.0634,0.0082 0.23928,-0.206855 0.30281,-0.199084 0.0425,0.0048 0.0849,0.07695 0.12596,0.07349 0.088,-0.0084 0.15162,-0.09913 0.22719,-0.149225 0.20172,-0.132962 0.40361,-0.265662 0.6054,-0.398562 0.0337,-0.02269 0.19638,-0.153063 0.22712,-0.149296 0.0425,0.0048 0.0832,0.06892 0.12594,0.07349 0.0807,0.0095 0.1465,-0.158926 0.22721,-0.149224 0.41739,0.24384 -0.095,-0.01074 0.20143,0.02399 0.41936,0.0495 -0.0844,0.04408 0.17631,0.196633 0.0294,0.01774 0.0466,-0.06667 0.0754,-0.05035 0.0296,0.01774 0.0336,0.08242 0.0504,0.123453 0.0169,0.04151 0.0337,0.08242 0.0505,0.123385 0.0157,0.04169 0.0462,0.07915 0.0504,0.123441 0.005,0.06271 -0.0307,0.110837 -0.025,0.173236 0.004,0.0444 0.0556,0.08282 0.0504,0.123452 -0.005,0.04074 -0.0604,0.01681 -0.0755,0.05034 -0.0431,0.09363 -0.008,0.252517 -0.051,0.346304 -0.0149,0.03333 -0.0602,0.01681 -0.0754,0.05045 -0.21103,0.463633 0.0769,-0.06272 0.0247,0.296517 -0.005,0.04074 -0.0699,0.0087 -0.0755,0.05034 -0.004,0.04086 0.0564,0.08214 0.0504,0.123446 -0.004,0.0409 -0.0698,0.009 -0.0754,0.0505 -0.006,0.041 0.0462,0.0791 0.0504,0.12344 0.005,0.0626 -0.0308,0.11047 -0.025,0.17322 0.004,0.0444 0.0462,0.0793 0.0504,0.12345 0.005,0.0626 -0.0308,0.11062 -0.026,0.1731 0.009,0.11857 0.14068,0.25136 0.15042,0.36999 0.005,0.0625 -0.0306,0.1107 -0.026,0.17297 6.5e-4,0.0169 0.24097,0.60568 0.25086,0.61664 0.0742,0.0831 0.17753,0.0637 0.25167,0.14719 0.0267,0.0292 0.0207,0.10601 0.0504,0.12345 0.0841,0.0491 0.067,-0.14893 0.15161,-0.0991 0.0295,0.0177 0.0207,0.10602 0.0504,0.12346 0.0628,0.0366 0.16405,-0.1862 0.22706,-0.14937 0.0295,0.0178 0.0207,0.10601 0.0504,0.12345 0.0295,0.0177 0.0499,-0.0336 0.0754,-0.0503 0.14503,-0.0957 0.13957,-0.0219 0.17693,-0.27273"
       id="path1252-1-8-0-5-7"
       inkscape:connector-curvature="0"
       inkscape:export-xdpi="96"
       inkscape:export-ydpi="96" />
    <path
       style="fill:none;stroke:#d60000;stroke-width:0.26458332px;stroke-linecap:butt;stroke-linejoin:miter;stroke-opacity:1"
       d="m 43.050432,47.010901 c 0.13435,0.0158 0.2687,0.0319 0.40306,0.0478 0.0422,0.0247 0.0832,0.0688 0.12604,0.0734 0.0303,0.004 0.0456,-0.0535 0.0755,-0.0504 0.0426,0.004 0.0832,0.0688 0.12595,0.0735 0.0304,0.004 0.0456,-0.0536 0.0755,-0.0503 0.0849,0.01 0.16645,0.13742 0.25165,0.14718 0.0304,0.004 0.0456,-0.0535 0.0754,-0.0504 0.0426,0.004 0.0832,0.0688 0.12576,0.0734 0.0305,0.004 0.0456,-0.0536 0.0754,-0.0504 0.0426,0.004 0.0832,0.0688 0.12577,0.0734 0.0303,0.004 0.0455,-0.0535 0.0755,-0.0503 0.0426,0.004 0.0831,0.0687 0.12595,0.0735 0.0305,0.004 0.0465,-0.0529 0.0755,-0.0504 0.0426,0.004 0.0832,0.0688 0.12595,0.0735 0.0303,0.004 0.0455,-0.0535 0.0754,-0.0503 0.0426,0.004 0.0831,0.0687 0.12596,0.0735 0.0305,0.004 0.0456,-0.0535 0.0755,-0.0504 0.0426,0.004 0.0832,0.0688 0.12596,0.0735 0.0301,0.004 0.0456,-0.0536 0.0755,-0.0503 0.0426,0.004 0.0831,0.0687 0.12594,0.0735 0.0599,0.007 0.092,-0.13424 0.15162,-0.0991 0.0295,0.0178 0.0207,0.106 0.0503,0.1232 0.0295,0.0177 0.0466,-0.0667 0.0755,-0.0504 0.0295,0.0177 0.0206,0.1058 0.0504,0.12345 0.059,0.0342 0.092,-0.13424 0.15161,-0.0991 0.0295,0.0177 0.0207,0.10601 0.0504,0.12336 0.0295,0.0177 0.0699,-0.009 0.0755,-0.0504 0.012,-0.0868 -0.1632,-0.28347 -0.15044,-0.37 0.0125,-0.0813 0.13949,-0.0179 0.15164,-0.0991 0.005,-0.0407 -0.0566,-0.0823 -0.0504,-0.12347 0.005,-0.0407 0.07,-0.009 0.0754,-0.0504 0.0527,-0.35825 -0.23509,0.16777 -0.0247,-0.29649 0.0151,-0.0333 0.0699,-0.009 0.0755,-0.0503 0.005,-0.0407 -0.0566,-0.0825 -0.0504,-0.12345 0.004,-0.0409 0.0604,-0.0168 0.0754,-0.0504 0.0211,-0.0476 0.005,-0.12597 0.025,-0.17322 0.015,-0.0333 0.0698,-0.009 0.0755,-0.0504 0.005,-0.0406 -0.0566,-0.0824 -0.0504,-0.12337 0.005,-0.0407 0.0602,-0.0168 0.0754,-0.0503 0.021,-0.0475 0.005,-0.12597 0.025,-0.17325 0.015,-0.0333 0.0602,-0.0168 0.0755,-0.0503 0.0214,-0.0466 0.004,-0.12621 0.025,-0.17324 0.015,-0.0333 0.0602,-0.0168 0.0754,-0.0504 0.0432,-0.0936 0.008,-0.25249 0.051,-0.34628 0.015,-0.0333 0.0604,-0.0168 0.0754,-0.0503 0.0431,-0.0935 0.008,-0.25247 0.051,-0.346276 0.0151,-0.03333 0.0699,-0.0087 0.0755,-0.05044 0.004,-0.04086 -0.0557,-0.08273 -0.0504,-0.123462 0.006,-0.04102 0.0697,-0.0087 0.0754,-0.05035 0.0125,-0.08129 -0.11212,-0.165165 -0.0999,-0.246898 0.005,-0.04074 0.0698,-0.0087 0.0755,-0.05034 0.0125,-0.08129 -0.1121,-0.165144 -0.0999,-0.246878 0.005,-0.04074 0.0699,-0.0087 0.0754,-0.05045 0.005,-0.04084 -0.0207,-0.106012 -0.0503,-0.123281 -0.011,-0.0052 -0.22399,0.133398 -0.22708,0.149395 -0.004,0.04086 0.0336,0.08242 0.0504,0.123453"
       id="path1254-2-7-6-0-2"
       inkscape:connector-curvature="0"
       inkscape:export-xdpi="96"
       inkscape:export-ydpi="96" />
    <path
       style="fill:none;stroke:#d60000;stroke-width:0.26458332px;stroke-linecap:butt;stroke-linejoin:miter;stroke-opacity:1"
       d="m 39.873352,33.551606 c 0.0464,-0.206206 0.0928,-0.412491 0.13925,-0.618717 0.006,-0.02929 -0.004,-0.07032 0.0193,-0.08863 0.0338,-0.02603 0.10779,-0.0082 0.14165,-0.03461 0.0513,-0.03807 0.0286,-0.315028 0.0797,-0.353542 0.0338,-0.02593 0.10778,-0.0082 0.14163,-0.03461 0.0651,-0.04875 -0.005,-0.216057 0.0598,-0.265118 0.0339,-0.02592 0.10778,-0.0082 0.14165,-0.03471 0.0483,-0.03648 -0.009,-0.140263 0.0403,-0.176619 0.0338,-0.02603 0.10778,-0.0082 0.14145,-0.03451 0.0483,-0.03648 -0.009,-0.140283 0.0401,-0.176576 0.0679,-0.05204 0.21524,-0.01668 0.28331,-0.06882 0.11152,-0.0846 -0.12973,-0.144297 0.16137,-0.122898 0.0396,0.0025 0.0885,0.06193 0.12193,0.0539 0.0334,-0.0077 -0.0129,-0.08025 0.0193,-0.08863 0.002,-0.0029 0.33573,0.148568 0.36515,0.161813 0.0549,0.02422 0.3312,0.131922 0.36517,0.161823 0.0944,0.08277 0.10945,0.201934 0.20373,0.28462 0.0338,0.02891 0.0882,0.02489 0.12179,0.0538 0.0471,0.04143 0.0547,0.100965 0.10184,0.142359 0.0338,0.02901 0.0882,0.02489 0.12192,0.0539 0.0944,0.08277 0.10929,0.201918 0.20373,0.28462 0.0338,0.02901 0.0882,0.02489 0.12192,0.0539 0.0472,0.04143 0.055,0.100976 0.10196,0.142283 0.0663,0.05848 0.17685,0.0492 0.24333,0.108285 0.0471,0.04143 0.0549,0.100873 0.10185,0.14236 0.0291,0.02583 0.4233,0.187495 0.48693,0.2157 0.0637,0.02836 0.4523,0.213153 0.48693,0.215709 0.11107,0.0083 0.17204,-0.07748 0.28329,-0.06882 0.0395,0.0025 0.0823,0.05098 0.12193,0.0539 0.0555,0.0031 0.0943,-0.02311 0.14146,-0.03451 0.0478,-0.01048 0.10778,-0.0082 0.14164,-0.03461 0.0239,-0.0186 -0.0127,-0.08035 0.0193,-0.08863 0.0335,-0.0077 0.0885,0.06193 0.12194,0.0539 0.0664,-0.01647 -0.027,-0.160509 0.0403,-0.176619 0.0335,-0.0077 0.0885,0.06193 0.12192,0.0539 0.004,-8.46e-4 0.0548,-0.243744 0.0597,-0.265101 0.0529,-0.235761 0.10601,-0.471441 0.15894,-0.707179 0.0193,-0.08863 0.0793,-0.164256 0.0599,-0.265134 -0.009,-0.04759 -0.0842,-0.09379 -0.10193,-0.142273 -0.0124,-0.0344 0.0129,-0.05895 0.0193,-0.08863 0.0128,-0.05885 0.0268,-0.117641 0.0403,-0.176629 0.0462,-0.206273 0.0928,-0.412501 0.13914,-0.618771 0.008,-0.04214 0.0934,-0.44019 0.0995,-0.441909 0.0335,-0.0077 0.0885,0.06193 0.12181,0.0538 0.0335,-0.0077 -0.0127,-0.08035 0.0193,-0.08863 0.0666,-0.01647 0.17637,0.124476 0.24333,0.108285 0.0335,-0.0077 -0.0127,-0.08035 0.0193,-0.08863 0.002,-0.0029 0.33572,0.148688 0.36515,0.161813 0.0408,0.01808 0.0976,0.02105 0.12192,0.0539 0.0241,0.03335 -0.0444,0.05454 -0.0193,0.08863 0.0242,0.03325 0.0882,0.02489 0.12192,0.0538 0.0293,0.02604 0.29469,0.3963 0.30553,0.426937 -0.0529,0.235741 -0.034,-0.04734 0.10196,0.142283 0.0533,0.07509 0.0289,0.155608 0.0815,0.230767 0.0241,0.03335 0.0814,0.03594 0.12191,0.0539 0.0342,0.04724 0.0785,0.09317 0.10198,0.142284 0.0378,0.077 0.0436,0.153602 0.0815,0.230807 0.0242,0.04886 0.0842,0.09389 0.10196,0.142294 0.0124,0.0344 -0.0318,0.05412 -0.0193,0.08863 0.0493,0.138408 0.25606,0.288654 0.3055,0.426956 0.0124,0.0344 -0.0444,0.05444 -0.0193,0.08863 0.21076,0.294446 0.0525,-0.28406 0.22356,0.196203 0.0124,0.0344 -0.0317,0.05393 -0.0193,0.08863 0.017,0.04838 0.0844,0.0939 0.10197,0.142294 0.0123,0.03439 -0.0444,0.05454 -0.0193,0.08863 0.0242,0.03325 0.0882,0.02499 0.1219,0.0539 0.0471,0.04143 0.0549,0.100873 0.10196,0.142273 0.0338,0.02891 0.0976,0.02105 0.12193,0.0539 0.0241,0.03335 -0.0444,0.05454 -0.0193,0.08863 0.0243,0.03355 0.0815,0.03604 0.12193,0.0539 0.0549,0.02422 0.32506,0.158978 0.36518,0.161825 0.0556,0.0041 0.0943,-0.02311 0.14163,-0.03461 0.0478,-0.01048 0.1078,-0.0082 0.14165,-0.03461 0.0239,-0.0186 -0.0128,-0.08025 0.0193,-0.08863 0.0335,-0.0077 0.0885,0.06193 0.12192,0.0539 0.0709,-0.0173 -0.0111,-0.247877 0.0597,-0.265112 0.0336,-0.0077 0.0885,0.06193 0.12191,0.0539 0.0291,-0.0069 0.0275,-0.240903 0.0597,-0.265181 0.0338,-0.02613 0.10766,-0.0082 0.14165,-0.03461 0.0513,-0.03807 0.0286,-0.315008 0.0797,-0.353522 0.0338,-0.02603 0.11455,-0.0036 0.14164,-0.03461 0.0578,-0.06684 0.0403,-0.176619 0.0599,-0.265144 0.0529,-0.235741 0.106,-0.471411 0.15894,-0.707179 0.009,-0.0398 0.0351,-0.246496 0.0599,-0.265124 0.0338,-0.02613 0.10779,-0.0082 0.14165,-0.03461 0.0649,-0.04895 -0.005,-0.216077 0.0599,-0.265144 0.46969,-0.114321 -0.0762,0.05783 0.16137,-0.122898 0.3361,-0.255644 -0.0301,0.09041 0.26341,0.01909 0.0335,-0.0077 -0.0127,-0.08035 0.0193,-0.08863 0.0335,-0.0077 0.0814,0.03594 0.12191,0.0539 0.0409,0.01808 0.0815,0.03594 0.12192,0.0538 0.0403,0.01896 0.0882,0.02489 0.12193,0.0539 0.0472,0.04153 0.0549,0.101073 0.10197,0.142284 0.0338,0.02901 0.0976,0.02105 0.12191,0.0539 0.0241,0.03335 -0.0318,0.05412 -0.0193,0.08863 0.034,0.09727 0.16973,0.187117 0.20373,0.284639 0.0123,0.0344 -0.0317,0.05393 -0.0193,0.08863 0.17006,0.480175 0.0118,-0.09852 0.22365,0.196257 0.0241,0.03335 -0.0444,0.05454 -0.0193,0.08863 0.0242,0.03325 0.0977,0.01995 0.12192,0.0539 0.0242,0.03325 -0.0444,0.05454 -0.0193,0.08863 0.0243,0.03356 0.0882,0.02489 0.12192,0.0539 0.0471,0.04143 0.0546,0.100861 0.10195,0.142282 0.0338,0.02901 0.0882,0.02499 0.12192,0.0539 0.0472,0.04144 0.0547,0.100965 0.10181,0.142348 0.0889,0.07896 0.27578,0.08321 0.36515,0.161823 0.0469,0.04143 0.0549,0.100873 0.10178,0.142217 0.0119,0.01206 0.59397,0.268561 0.6087,0.269586 0.11107,0.0083 0.17201,-0.07738 0.28331,-0.06882 0.0394,0.0025 0.0885,0.06193 0.12193,0.0539 0.0946,-0.0231 -0.0552,-0.153732 0.0403,-0.176609 0.0335,-0.0077 0.0885,0.06193 0.12193,0.0539 0.0706,-0.01721 -0.0112,-0.247921 0.0597,-0.265162 0.0336,-0.0077 0.0885,0.06193 0.12192,0.0539 0.0336,-0.0077 0.0128,-0.05885 0.0193,-0.08863 0.0379,-0.169574 0.0853,-0.112612 -0.062,-0.319116"
       id="path1252-1-8-0-3"
       inkscape:connector-curvature="0"
       inkscape:export-xdpi="96"
       inkscape:export-ydpi="96" />
    <path
       style="fill:none;stroke:#d60000;stroke-width:0.26458332px;stroke-linecap:butt;stroke-linejoin:miter;stroke-opacity:1"
       d="m 52.516562,35.06951 c 0.10764,-0.08194 0.2154,-0.163762 0.32311,-0.245652 0.0475,-0.01149 0.10765,-0.0082 0.14164,-0.03471 0.0249,-0.01776 -0.004,-0.07012 0.0193,-0.08863 0.034,-0.02592 0.10766,-0.0082 0.14164,-0.03461 0.0249,-0.01786 -0.004,-0.07032 0.0193,-0.08863 0.0679,-0.05194 0.21521,-0.01668 0.2833,-0.06882 0.0249,-0.01786 -0.003,-0.07008 0.0193,-0.08863 0.034,-0.02592 0.10766,-0.0082 0.14146,-0.03452 0.025,-0.01796 -0.004,-0.07022 0.0193,-0.08863 0.034,-0.02592 0.1076,-0.0082 0.14145,-0.03451 0.0249,-0.01786 -0.003,-0.07008 0.0193,-0.08863 0.0339,-0.02602 0.10755,-0.0082 0.14164,-0.03461 0.025,-0.01786 -0.003,-0.07038 0.0193,-0.08863 0.0339,-0.02602 0.10762,-0.0082 0.14165,-0.03461 0.0249,-0.01786 -0.004,-0.07012 0.0193,-0.08863 0.034,-0.02592 0.10754,-0.0082 0.14163,-0.03461 0.0249,-0.01786 -0.003,-0.07008 0.0193,-0.08863 0.034,-0.02592 0.1076,-0.0082 0.14164,-0.03461 0.0248,-0.01767 -0.004,-0.07022 0.0193,-0.08863 0.034,-0.02592 0.10755,-0.0082 0.14164,-0.03461 0.0481,-0.03639 -0.027,-0.160499 0.0403,-0.176599 0.0336,-0.0077 0.0885,0.06193 0.12166,0.05379 0.0335,-0.0077 -0.0127,-0.08035 0.0193,-0.08863 0.0335,-0.0077 0.0884,0.06183 0.12192,0.0539 0.0664,-0.01637 -0.027,-0.160509 0.0403,-0.176609 0.0336,-0.0077 0.0885,0.06193 0.12193,0.0538 0.0335,-0.0077 0.0444,-0.05454 0.0193,-0.08863 -0.0512,-0.07101 -0.31428,-0.09069 -0.36518,-0.161824 -0.0476,-0.06707 0.088,-0.109737 0.0403,-0.176629 -0.0241,-0.03335 -0.0979,-0.01996 -0.12193,-0.0539 -0.0241,-0.03335 0.0445,-0.05454 0.0193,-0.08863 -0.21077,-0.294456 -0.0527,0.283962 -0.22359,-0.196275 -0.0124,-0.0345 0.0445,-0.05454 0.0193,-0.08863 -0.0242,-0.03335 -0.098,-0.02006 -0.12193,-0.0539 -0.0242,-0.03325 0.0318,-0.05412 0.0193,-0.08863 -0.0178,-0.04882 -0.0842,-0.09389 -0.10194,-0.142273 -0.0124,-0.0344 0.0444,-0.05454 0.0193,-0.08863 -0.024,-0.03324 -0.098,-0.02006 -0.12191,-0.0538 -0.0241,-0.03335 0.0317,-0.05393 0.0193,-0.08863 -0.0179,-0.04872 -0.0842,-0.09389 -0.10197,-0.142294 -0.0124,-0.0344 0.0317,-0.05393 0.0193,-0.08863 -0.017,-0.04839 -0.0844,-0.0939 -0.10197,-0.142294 -0.0124,-0.0344 0.0317,-0.05393 0.0193,-0.08863 -0.0339,-0.09737 -0.16972,-0.187097 -0.20373,-0.284619 -0.0124,-0.0344 0.0318,-0.05412 0.0193,-0.08863 -0.034,-0.09727 -0.16972,-0.187077 -0.20371,-0.284618 -0.0124,-0.0345 0.0444,-0.05454 0.0193,-0.08863 -0.0242,-0.03325 -0.0975,-0.02094 -0.12195,-0.0539 -0.0243,-0.03355 0.0444,-0.05444 0.0193,-0.08863 -0.0476,-0.06707 -0.19537,-0.041 -0.24336,-0.108286 -0.0241,-0.03335 0.0444,-0.05454 0.0193,-0.08863 -0.0476,-0.06707 -0.19534,-0.041 -0.24333,-0.108285 -0.0241,-0.03335 0.0444,-0.05454 0.0193,-0.08863 -0.0242,-0.03325 -0.0885,-0.06193 -0.1218,-0.0538 -0.0118,0.0035 -0.0686,0.251531 -0.0597,0.265181 0.0242,0.03325 0.0814,0.03594 0.12193,0.0539"
       id="path1254-2-7-6-6"
       inkscape:connector-curvature="0"
       inkscape:export-xdpi="96"
       inkscape:export-ydpi="96" />
    <text
       xml:space="preserve"
       style="font-style:normal;font-weight:normal;font-size:10.58333302px;line-height:1.25;font-family:sans-serif;letter-spacing:0px;word-spacing:0px;fill:#000000;fill-opacity:1;stroke:none;stroke-width:0.26458332"
       x="72.006989"
       y="32.944336"
       id="text1333"
       inkscape:export-xdpi="96"
       inkscape:export-ydpi="96"><tspan
         sodipodi:role="line"
         id="tspan1331"
         x="72.006989"
         y="32.944336"
         style="stroke-width:0.26458332">...</tspan></text>
    <text
       xml:space="preserve"
       style="font-style:normal;font-weight:normal;font-size:10.58333302px;line-height:1.25;font-family:sans-serif;letter-spacing:0px;word-spacing:0px;fill:#000000;fill-opacity:1;stroke:none;stroke-width:0.26458332"
       x="14.714765"
       y="32.79882"
       id="text1333-7"
       inkscape:export-xdpi="96"
       inkscape:export-ydpi="96"><tspan
         sodipodi:role="line"
         id="tspan1331-5"
         x="14.714765"
         y="32.79882"
         style="stroke-width:0.26458332">...</tspan></text>
  </g>
</svg>
